<?xml version="1.0" encoding="utf-8"?>
<!-- Generator: Adobe Illustrator 22.1.0, SVG Export Plug-In . SVG Version: 6.00 Build 0)  -->
<svg version="1.1" id="layer_1" xmlns="http://www.w3.org/2000/svg" xmlns:xlink="http://www.w3.org/1999/xlink" x="0px" y="0px"
	 viewBox="0 0 1400 1400" style="enable-background:new 0 0 1400 1400;" xml:space="preserve">
<style type="text/css">
	.st0{fill:#96847D;}
	.st1{fill:#B59F99;}
	.st2{fill:#765660;}
	.st3{fill:#490F39;}
	.st4{fill:#802054;}
	.st5{fill:#D5E4DB;}
	.st6{fill:#9696C0;}
	.st7{fill:#EDB67B;}
	.st8{fill:#C3294B;}
	.st9{fill:#E0A13B;}
	.st10{fill:#DE5798;}
	.st11{fill:#793894;}
	.st12{fill:#612B7C;}
	.st13{fill:#FCB834;}
	.st14{fill:#D68B55;}
	.st15{fill:#E1D8D8;}
	.st16{fill:#B6AAAA;}
	.st17{fill:#FDD8B3;}
	.st18{fill:#AA522A;}
	.st19{fill:#42181B;}
	.st20{fill:#FDF3F2;}
</style>
<g>
	<rect x="0" class="st0" width="1400" height="1400"/>
	<circle class="st1" cx="700" cy="700" r="511.6"/>
	<path class="st2" d="M1174.6,1226.4c-19.6-2.8-67.2-25.2-140-36.4c-72.8-11.2-103.8,4-137.2-2.8c-137.2-28-151.2-16.8-238.4-22.8
		S525,1120,438.2,1120c-86.8,0-240.8,47.6-271.6,70c40.4,35.2,81.2,78.4,154,78.4s204.4-16.8,257.6-16.8
		c53.2,0,81.2,25.2,117.6,16.8c36.4-8.4,120.4,25.2,212.8,14C1001,1271.2,1194.2,1229.2,1174.6,1226.4z"/>
	<path class="st3" d="M966.2,1193c0,0-55.1,26.8-71.1,33c-16,6.1-6.4,26,35.7,10.2C972.9,1220.4,993.2,1187.4,966.2,1193z"/>
	<path class="st3" d="M784.2,1194.2c0,0-54.1,19.4-69.7,23.5c-15.6,4.1-8.6,23.6,32.2,13.1C787.7,1220.4,809.9,1191.7,784.2,1194.2z
		"/>
	<path class="st3" d="M364.4,1170.2c-16,8.8-61.2,28.1-76.6,33.2c-15.5,5.2,9.3,25.3,50.6,7.2
		C379.6,1192.6,404.4,1148.2,364.4,1170.2z"/>
	<g>
		<path class="st3" d="M608.7,1158.4c4,26,24,24,32,6c8-18,54-190.1,54-190.1l-98.1-18C596.7,956.3,604.7,1132.4,608.7,1158.4z"/>
		<path class="st3" d="M960.6,1204.3c5.8,11.5,36.9-34.6,46.2-79.7l-57.7,10.4C949.1,1138.5,954.9,1192.8,960.6,1204.3z"/>
		<path class="st3" d="M792.7,1200.6c5.8-11.5,11.5-65.8,11.5-69.3l-57.7-10.4C755.8,1166,787,1212.1,792.7,1200.6z"/>
		<path class="st3" d="M370.5,1178.3c0.7,11.9,19.6,7,29.4-19.6c33.4-90.6,117.6-215.6,117.6-215.6l-131.6-56
			C385.9,887.1,364.9,1088.7,370.5,1178.3z"/>
		<path class="st4" d="M341.6,890.4c0,0,35,65.8,245,100.8l19.6-33.6l23.8,33.6c0,0,23.8-2.8,46.2-12.6
			c22.4-9.8,12.6-67.2,12.6-67.2L341.6,890.4z"/>
		<path class="st5" d="M545.1,422.8c-5.6,7.5-14.5,11.6-18.7,18.7c-4.2,7-9.3,18.7-13.1,48.5c-3.7,29.9,35.5,117.6,42.9,132.5
			c7.5,14.9,54.1,22.4,70.9,20.5c16.8-1.9,50.4-72.8,24.3-149.3L545.1,422.8z"/>
		<path class="st6" d="M547.4,361.2c-39.2-1.4-56,8.4-26.6,92.4c70,84,107.8,47.6,137.2,18.2l-43.4-96.6
			C614.6,375.2,586.6,362.6,547.4,361.2z"/>
		<path class="st4" d="M655.2,407.9L610.4,602l-16.8,354.2c0,0,84,4.2,140-29.4S799.4,451,655.2,407.9z"/>
		<path class="st3" d="M606.3,468.7c-3.8-5.6-10.9-7-15.1-1.8c-9.3-3.7-38.4-15.3-43.1-15.4c-5.6-0.1-6.7,52.7-6.1,59
			c0.6,6.3,13.7-3.5,29.5-7.8c10.3-2.9,18.1-9.7,22.3-14.1c3.1,2.4,6.8,3.4,9.8,1.8c8,7.6,20.7,19.8,28.7,23.1
			c11,4.5,20.3,6.4,21.4,3.5c1.1-2.9,11.5-32.8,5.5-58.2C658.3,454.8,620.2,464.9,606.3,468.7z"/>
		<path class="st4" d="M520.3,415.3l-11.2,0c0-80.2-126.3,15-191.8,132.5c-82.1,147.5-22.4,210.9,28,255.7
			c-5.6,52.3-7.5,70-3.7,86.8c41.1,45.7,201.6,75.6,287,63c-2-17.1-13.3-210.9-18.2-351.4C597.3,559.1,520.3,415.3,520.3,415.3z"/>
		<path class="st7" d="M443.7,788c-10.1,13.2-30.1,6.1-44.7,4.9c0.9,23-16.2,33.4-16.2,33.4s10.6,25.4,29.5,41
			c0,0,24.4-10.2,42.7-39.2c-1.9-9.4-7.1-12.5-7.1-12.5C472.3,801.7,453.8,774.8,443.7,788z"/>
		<path class="st8" d="M493.2,395.7c0,0-31.2,75.6-34,84.9C456.4,490,610.4,602,610.4,602s-21.7-62.7-82.6-190.4
			C521.8,408.5,493.2,395.7,493.2,395.7z"/>
		<path class="st9" d="M687.4,754.6l65.8-163.8C718.2,610.4,617.4,701.4,687.4,754.6z"/>
		<path class="st10" d="M676.2,851.2c-33.6,89.6-36.4,257.6-36.4,257.6s252,134.4,487.2-33.6c-2.8-95.2-16.8-235.2-16.8-235.2
			S704.4,775.8,676.2,851.2z"/>
		<path class="st5" d="M897.4,568.4c-14.9-5.6-112,11.2-112,11.2S727.5,630,699.5,882c0,0,31.7,74.7,136.3,65.3
			S912.3,574,897.4,568.4z"/>
		<path class="st6" d="M897.4,568.4c-14.9-5.6-112,11.2-112,11.2s-15.9,13.8-35,63.1c4.7,14.5,15.2,30.7,49.9,37.7
			c34.8,7,72.9,3.2,111.4-2.4C909.6,617.6,902.7,570.4,897.4,568.4z"/>
		<path class="st11" d="M964.8,529.7l-108.5,51.8c0,0-78.4,166.1-65.3,403.2c197.9,24.3,308-80.3,336-149.3
			C1093.4,616.9,964.8,529.7,964.8,529.7z"/>
		<path class="st12" d="M964.8,529.7l-108.5,51.8c0,0-17.6,37.4-34.8,101.9c82.4,6.9,179.2-33,254-13.6
			C1026.5,571.5,964.8,529.7,964.8,529.7z"/>
		<path class="st13" d="M900.2,698.9c-0.3,70,17.1,192.3-86.9,212.1c0,0-21.6,8.7-29.7,25.5c137.2,38,296.5-56.1,265.5-272.2
			C966.4,587.8,900.2,698.9,900.2,698.9z"/>
		<path class="st9" d="M940.3,672c-4.5,5,102,28,48.9,152.6c-41.4,97-130.5,95.6-130.5,95.6s-4.4,9.2-5.9,24.2
			c115.7-4.6,222.2-100,196.4-280.2C1049.2,664.3,996.3,610.4,940.3,672z"/>
		<path class="st11" d="M654.7,891.3c0,0,26.1,13.1,61.6,44.8c5.6-190.4,56-343.5,56-343.5C721.9,555.3,654.7,891.3,654.7,891.3z"/>
		<path class="st12" d="M736.8,616c12.6,1,7.9,20.2,18.6,37.9c9.5-38.6,16.9-61.2,16.9-61.2C761,584.3,748.8,594.8,736.8,616z"/>
		<polygon class="st8" points="610.4,602 558.6,554.4 526.4,592.2 623,688.8 680.4,576.8 648.2,546 		"/>
		<path class="st5" d="M820.6,906c0,0,5.1,19.4,5.4,42.9c20.1,5.8,42,4.9,42,4.9c5.4-40.6-18.7-70.9-18.7-70.9
			S827.1,894.1,820.6,906z"/>
		<path class="st3" d="M798.7,685.5l-155.1-40.3c-10.1-2.6-20.4,3.4-23,13.5l-61.6,237.2c-2.6,10.1,3.4,20.4,13.5,23l155.1,40.3
			c10.1,2.6,20.4-3.4,23-13.5l61.6-237.2C814.8,698.4,808.7,688.1,798.7,685.5z"/>
		
			<rect x="567.5" y="726.1" transform="matrix(0.2466 -0.9691 0.9691 0.2466 -261.3675 1268.8176)" class="st8" width="235.8" height="152.8"/>
		<path class="st12" d="M985.6,910c-10.3,7.7-32.2,18.2-42,22.4c-9.8,4.2,5.6,34.8,32.2,14C997.2,929.6,991.2,905.8,985.6,910z"/>
		<path class="st7" d="M785.4,883.4c-6.1-6.5-11.4-10.6-15.4-12.5l-3.5,13.5c3.7,5.4,7.6,9.9,5.6,10.9c-7,3.5-18.5-10.3-31.3-2.5
			c-12.8,7.8-15.3,40-5.8,50.1c4.3,4.6,17.5,15.5,29.8,17.1c20.6,2.7,62.4-11.3,62.4-11.3s2.8-15.4-5.6-42.7
			C815.9,906.7,807.8,907.4,785.4,883.4z"/>
		<path class="st14" d="M769.3,938.7c-21-0.7-38.5-5.6-39.2-16.8c-0.1-0.9-0.3-1.5-0.8-1.8c-0.4,9.2,1.4,18.2,5.7,22.8
			c4.3,4.6,17.5,15.5,29.8,17.1c20.6,2.7,62.4-11.3,62.4-11.3s1.3-7.3-0.6-20.7C811.8,931.8,789.3,939.4,769.3,938.7z"/>
		<path class="st8" d="M397.1,870.8c-3.9,1.4,31.7,12.1,60.7-8.4c28.9-20.5,11.2-60.7,11.2-60.7S445.6,853.1,397.1,870.8z"/>
		<path class="st8" d="M686.9,427.5l-42,8.4L610.4,602c0,0,101.7-115.7,98.9-121.3C706.5,475.1,686.9,427.5,686.9,427.5z"/>
		<path class="st3" d="M430.9,579.5c-27,21.9-55.4,68.3-66.4,98.3c-13.6,37,5.9,36.3,21.3-0.2C401.1,641.1,457.8,557.6,430.9,579.5z
			"/>
		<path class="st3" d="M700.6,1208.4c-14.6-7.3-56.5-32.8-71.1-43.8c-36.5-27.4-18.2,20.1,20.1,43.8
			C687.8,1232.1,715.2,1215.7,700.6,1208.4z"/>
		<g>
			<path class="st15" d="M653.7,196.9c-11.3,6.9-27.3,7-45.7,2.5l36.1,13.5C656.7,204.3,659.3,193.4,653.7,196.9z"/>
			<path class="st15" d="M670.2,240.2c0,0-21,45.4-25,66c-4,20.6-0.2,30.7,41.5,69C777.3,259.7,723.6,241.5,670.2,240.2z"/>
			<path class="st16" d="M686,263.4c0,0-26,72.2-27.8,82.6c-1.8,10.4,10.6,24.9,31.1,26.2C766.3,270.5,702.9,261.7,686,263.4z"/>
			<path class="st15" d="M436.8,236.9c0.2,23.1,12.5,75.9,15.7,62.3c23,6,59.3,14.7,67.4,1.3c8-13.4,44.9-101,44.9-101
				C502.7,170.2,436.1,166.1,436.8,236.9z"/>
			<path class="st16" d="M468,196.7c2.8-4.2-41.1,12.4-8,105.3l57.7-18.5C481.1,274,448.9,225.2,468,196.7z"/>
			<path class="st7" d="M687.9,344.7c14.2-59.1,19.4-112.6-61.5-140.8c-80.9-28.2-117.3,4.7-141.9,79.9
				c-29.5-32.3-58.2,23.3-12.9,53.9c1.3,28.9,5,81.6,97.6,111.5c106.7,34.5,140.5-18.7,134-46.5C696.7,374.8,683,365.4,687.9,344.7z
				"/>
			<path class="st14" d="M484.5,283.8c0,0-2.1,11.1-1.9,14.1c0.3,2.9,8.8-4.6,11.3-5c2.5-0.4,48.6,3.5,48.6,3.5s2.5,5.4,6.5,8.8
				c4,3.4-1-11.8,2.9-8c3.9,3.8-1.3-10.4-1.3-10.4L484.5,283.8z"/>
			<path class="st14" d="M639.5,299.9c-8.5-0.6-32.6-9.6-36.7-0.2l-16.2,16.6c-7.7,5-24,5.4-30.5-1.9c-1.6-1.8,6.2,19.1,26.9,15.5
				c20.7-3.7,34-18.8,43.3-18.4c9.3,0.4,10.7,18.4,26.8,26.2c16.1,7.8,12.3,7.3,4.3-4.4C649.4,321.7,648,300.5,639.5,299.9z"/>
			<path class="st17" d="M498.1,250.4c0,0,0.6-1.9,2-5c-0.8,1.5-1.5,3-2.3,4.5C498,250.3,498.1,250.4,498.1,250.4z"/>
			<path class="st17" d="M626.4,203.9c-61.8-21.5-97.6-7.4-122.1,34c10.6-16.6,37.1-42.5,96.2-33.4c73.7,11.4,95.3,56,94.5,83.2
				l1.2-0.9C695.6,251.9,679.6,222.4,626.4,203.9z"/>
			<path class="st14" d="M657.1,261.3c-5.8,5.6-0.3,17.6,6.9,11.7C671.1,267.2,669.7,249.2,657.1,261.3z"/>
			<path class="st14" d="M588,246.1c-9.5-0.8,7.7,11.2,12.9,15.3c5.1,4.1,8.4-8.1,6.1-11.9L588,246.1z"/>
			<path class="st14" d="M666.9,287.3c-12.7,2-9.6,16-5.6,15.9c4-0.1,10.9-0.4,15.5,1.6C690.2,310.6,679.7,285.4,666.9,287.3z"/>
			<path class="st14" d="M590.3,272.6c-12.5-3.5-26.6,8.4-22.3,8.8c4.4,0.5,15.4,4.9,20.6,8.3C598,295.9,602.7,276.2,590.3,272.6z"
				/>
			<path class="st14" d="M462,292.9c3-3.6,6.1,0.4,10.9,2.6c3.2,1.5,3-3.6-3.8-11C462.2,277.1,458.9,296.5,462,292.9z"/>
			<path class="st18" d="M467.9,310.1c2.1,6.3,6.4,12.3,6.3-2.1C474.1,300.2,465.8,303.9,467.9,310.1z"/>
			<path class="st14" d="M637.1,335.3c-2.7-1.4-7.1-7.7-13-8.4c-5.8-0.7-10,7.3-15.9,3.7c0,0,15.2,14.9,19.4,12.9
				C631.8,341.6,639.7,336.7,637.1,335.3z"/>
			<path class="st19" d="M586.8,257.6c-16.7-4-33.6,6.1-37.6,22.6c-4,16.6,6.5,33.2,23.2,37.3c16.8,4,33.6-6.1,37.6-22.6
				C614,278.2,603.5,261.6,586.8,257.6z M601.9,292.9c-2.9,12-15.1,19.4-27.5,16.4c-12.3-3-19.9-15.1-17-27.1
				c2.9-12,15.1-19.4,27.5-16.4C597.2,268.7,604.7,280.9,601.9,292.9z"/>
			<path class="st19" d="M680.3,277.9c-16.7-4-33.6,6.1-37.6,22.7c-4,16.6,6.5,33.2,23.2,37.2c16.7,4,33.6-6.1,37.6-22.6
				C707.5,298.5,697.1,281.9,680.3,277.9z M695.4,313.2c-2.9,12-15.1,19.4-27.5,16.4c-12.3-3-19.9-15.1-17-27.1
				c2.9-12,15.1-19.4,27.5-16.4C690.7,289,698.2,301.2,695.4,313.2z"/>
			<path class="st18" d="M629.3,375.5c-5.5,1.1-14.8,1.7-21.2,0.2c-6.4-1.5-2,9.8,9,10.3C629.5,386.6,636.8,374,629.3,375.5z"/>
			
				<rect x="623.9" y="278.8" transform="matrix(0.1916 -0.9815 0.9815 0.1916 215.425 857.27)" class="st19" width="8.4" height="38.1"/>
			<path class="st19" d="M575.2,284.5c-4.5,5.9,1.4,14.4,5.8,6.9C585.3,283.8,581.3,276.6,575.2,284.5z"/>
			<path class="st19" d="M569,282.3c0,0,11.1-3.9,16.7,8.4C588.2,273.3,573.4,277.7,569,282.3z"/>
			<path class="st19" d="M668.4,303.9c-4,5.3,1.7,11.8,5.9,6.2C678.4,304.5,675.9,293.8,668.4,303.9z"/>
			<path class="st19" d="M665.7,301.9c0,0,11.1-3.9,14.1,7.6C681.8,298.8,673.1,290.6,665.7,301.9z"/>
			<path class="st20" d="M590,236.3c-11.9,1.5-24.7,10.9-20.3,10.5c4.4-0.4,25.6,2.4,31.1,4.6C615.7,257.3,601.9,234.8,590,236.3z"
				/>
			<path class="st20" d="M661.9,252.6c-8.8,6.5-7.8,14.4-2.5,12.4c5.3-2.1,11.3-2.6,15.5-2.5C687.4,262.5,670.7,246,661.9,252.6z"/>
			<path class="st14" d="M626.5,402.2c-2.2,0.2-6.6,0.4-10.2,0.4c-5.8,0.1,2.3,5.6,6.7,5.2C627.4,407.5,628.7,402,626.5,402.2z"/>
			<path class="st20" d="M692.1,376.8c-4.9,9.1-12.6,2.3-28.7-13.8c-16.1-16.1-27-16.8-42.9-8.5c-24.3-19.7-33.9-2.5-55.5,7.1
				c-21.6,9.6-35.4,12.8-31.6,3.4c3.8-9.3-20,13.2,8.3,22.5c28.3,9.3,71.4-15.5,78-15.4c6.6,0,34.6,24.8,53.9,28.1
				C693.1,403.6,697,367.7,692.1,376.8z"/>
			<path class="st19" d="M468.5,274.4c4,0.3,7.4,2.2,10,4.2c2-0.7,4.3-1.2,6.5-0.8c8.5,1.1,66,7.2,66,7.2l0.9-8.4
				c-0.1,0-57.6-6.2-65.9-7.2C477.6,268.5,471,272.5,468.5,274.4z"/>
			<path class="st14" d="M612.7,227.8c-30.9-3.1-40.1,0.9-34.4,1.3c4.3,0.3,40.5-0.8,72.9,8.4C654.7,238.5,643.6,230.9,612.7,227.8z
				"/>
			<path class="st14" d="M603.8,215.7c-15.4-0.8-27.6,2-21.9,1.4c5.7-0.6,32.8,1.2,48.3,4.2C636,222.4,622.9,216.7,603.8,215.7z"/>
			<path class="st14" d="M703.3,406c-3.4,56.3-144.3,43.1-188.9-0.7c-44.7-43.8-36.6-95.1-39.5-85.2c-7.7,26.2-2,72,38.4,101.7
				c7.1,4.9,14.8,9.6,23.1,13.8c10.1,5.1,20.8,9.5,31.7,13.3c0.3,0.1,0.7,0.2,1,0.3c103.2,33.3,138.2-15.3,134.5-43.7
				C703.5,405.3,703.3,405.5,703.3,406z"/>
			<path class="st17" d="M624,321c-1.3,3.7,4,5.7,5.4,1.6C630.7,318.6,626.4,314,624,321z"/>
			<path class="st14" d="M585.6,296.6c-1.6,1.9-4.3,3.8-7.1,3.6c-2.8-0.2,7.6,6.2,11.1,1.7C593.1,297.5,588.3,293.4,585.6,296.6z"/>
			<path class="st14" d="M678.9,315.7c-1.5,0.8-5.7,3.9-7.8,4.4c-2,0.5,5.6,4.7,9.6,1.8C684.8,319,682.8,313.7,678.9,315.7z"/>
			<path class="st14" d="M517.3,251.4c-2.9,6,4.4,5.7,6.2,2C527.3,245.7,520.1,245.4,517.3,251.4z"/>
			<path class="st14" d="M504.8,255.2c-0.5,4.2,3.1,2.5,4.6,0.6C512.2,252.6,505.4,251,504.8,255.2z"/>
			<path class="st14" d="M508.6,241.7c-2.5,6.6,3.9,5,7.1,0.3C521.6,233.3,511.1,235.1,508.6,241.7z"/>
			<path class="st20" d="M595,271.5c-11.5-8-12.5,6-4.2,9.5C603.8,286.6,606.5,279.6,595,271.5z"/>
			<path class="st20" d="M681.5,300c10.4,10.7,19.9,7.2,11.4-5.4C684.4,282,673.7,292.1,681.5,300z"/>
		</g>
		<g>
			<path class="st15" d="M732.2,440.5c-43.4-15.4-11.2,68.6,23.8,51.8l37.8-7c0,0,42-96.6,4.2-145.6
				C760.2,290.7,718.2,391.5,732.2,440.5z"/>
			<path class="st15" d="M907.2,371c0,0,15.4,93.8,20.1,108.7c4.7,14.9-20.1,70.5,3.7,70c19.6,0,62.5-5.6,98.9-70
				C1068.1,412.2,999.1,323.9,907.2,371z"/>
			<path class="st16" d="M751.3,399.5c-20.9,32.5-8.4,88.2,11.7,58.8l23.3-76.1C786.3,382.2,768.1,373.3,751.3,399.5z"/>
			<path class="st16" d="M1017.3,416.7c3.7,39.7-56.5,40.1-56.5,40.1l-3.2,88.4c27.4-6.3,60-42.2,66.5-58.1
				C1039,450.9,1017.1,414.3,1017.3,416.7z"/>
			<path class="st7" d="M965.6,471.7c-6.4-78.9-34.1-119.4-119.4-110.8c-85.3,8.5-92.7,61.8-92.7,122.6c0,21.3-16.7,16.9-27.9,50.5
				c-9,27.1,10,94.2,121.3,81.2c87.7-10.3,110.6-60.2,118.6-88C1020.1,510.5,1001.8,447.2,965.6,471.7z"/>
			<path class="st14" d="M896.9,469c4.7-2.8-3.7,10.7,0.9,8.4c4.7-2.3,8.4-7,8.4-7s45.7,7,48.1,7.9c2.3,0.9,8.9,10.3,9.8,7.5
				c0.9-2.8,1.5-14.1,1.5-14.1l-65-12.5C900.7,459.2,892.3,471.8,896.9,469z"/>
			<path class="st14" d="M873.7,410.9l-19.3-1c-3.2,3.2-2.8,15.8,3.1,13C863.6,420,883.2,412.3,873.7,410.9z"/>
			<path class="st14" d="M876.4,490.9c-7.5,1.4-16.3-7.5-21-16.3c-4.7-8.9-12.1-23.8-18.2-23.3c-9.1,0.1-22.4-0.9-26.9-0.2
				c-4.6,0.7,0,15,0,15c1.4-8,12.5-11.5,19-2.2c5.6,8,9.3,20.1,22.9,29.9C865.6,503.5,883.8,489.5,876.4,490.9z"/>
			<path class="st14" d="M789.6,431.5c-11.9-4.9-28,17.2-13.7,14.7c4.9-0.8,11.6,1,15.4,2.1S801.5,436.5,789.6,431.5z"/>
			<path class="st14" d="M871.1,431.2c-12.3-4.2-19.6,14.7-8.4,15c6.2,0.2,17.8,2.8,21.7,4.9C888.3,453.3,883.4,435.4,871.1,431.2z"
				/>
			<path class="st14" d="M807.3,454.1c-3.7,7-12.9,16.5-17,22.2c-4.1,5.7-11.9,7.7-16.1,8.4c-4.2,0.7,18.2,11.4,32.2-7
				C812.9,469.1,811.6,446.1,807.3,454.1z"/>
			<path class="st18" d="M971.4,494c-3.5,14,2.1,9.1,5.6,3.5C980.5,491.9,973.3,486.4,971.4,494z"/>
			<g>
				<path class="st19" d="M872.2,422.3c-17.2,0-31.3,13.7-31.3,30.8c0,17.1,14,30.8,31.3,30.8c17.2,0,31.3-13.7,31.3-30.8
					C903.4,436.1,889.4,422.4,872.2,422.3z M872.2,475.5c-12.7,0-22.8-10.1-22.9-22.4c0-12.3,10.2-22.4,22.9-22.4
					c12.7,0,22.8,10.1,22.9,22.4C895,465.4,884.9,475.5,872.2,475.5z"/>
			</g>
			<g>
				<path class="st19" d="M776.5,420.2c-17.2,0-31.3,13.7-31.3,30.8c0,17.1,14,30.8,31.3,30.8c17.2,0,31.3-13.7,31.3-30.8
					C807.8,434,793.7,420.3,776.5,420.2z M776.5,473.4c-12.7,0-22.8-10.1-22.9-22.4c0-12.3,10.2-22.4,22.9-22.4
					c12.7,0,22.8,10.1,22.9,22.4C799.4,463.3,789.2,473.4,776.5,473.4z"/>
			</g>
			<g>
				
					<rect x="818.4" y="432.8" transform="matrix(4.285261e-02 -0.9991 0.9991 4.285261e-02 335.9208 1254.3353)" class="st19" width="8.4" height="38.1"/>
			</g>
			<path class="st14" d="M788.2,402.7c0.9,1.9-0.9,12.1,4.7,18.7c5.6,6.5,13.1,16.3,13.5,10.3c0.5-6.1-1.4-18.7-2.3-24.3
				L788.2,402.7z"/>
			<path class="st14" d="M918.4,348.1c-9.1-5.6-25.2-16.1-40.6-18.2c-15.4-2.1-26.6-1.4-37.1,0c-10.5,1.4-18.2,2.8-22.4,4.2
				L784,378.9c0,0,40.6,46.2,92.4,15.4c20.5,38.3,53.2,32.2,53.2,32.2s8.4,33.6,19.6,54.6c11.2,21,18.9-72.8,11.9-88.9
				C954.1,376.1,927.5,353.7,918.4,348.1z"/>
			<path class="st14" d="M823.9,556c-3.5-0.9-7.7-2.1-9.8-2.8c-2.1-0.7-2.1,4.9,2.1,6.3C820.4,560.9,829.5,557.4,823.9,556z"/>
			<path class="st19" d="M967.4,457.4c-8.3-0.9-65.7-8.4-65.7-8.4l-1.1,8.3c0,0,57.3,7.5,65.9,8.4c2.2,0.2,4.4,1.2,6.1,2.3
				c3-1.4,6.8-2.4,10.7-1.8C981.3,463.9,975.8,458.4,967.4,457.4z"/>
			<path class="st14" d="M838.5,376.9c15.8,0.7,42.6,5.3,47.9,7.2c5.4,1.9-5.8-3.6-21-6.4C846.7,374.1,832.5,376.7,838.5,376.9z"/>
			<path class="st14" d="M964.6,491.6c2.1-18.9-10.8-4.4-11.2,0C950.6,521,930.3,596.9,833,601.1c-93.5,4-111.2-54.6-102.6-78.7
				c-1.6,3.3-3.2,7-4.7,11.5c-9,27.1,10,94.2,121.3,81.2c85.1-10,109.2-57.2,117.9-85.4C970.2,508.2,963.7,499.9,964.6,491.6z"/>
			<path class="st20" d="M861,434c-13.1,5.1-12.1,12.6,1.9,10.3C871.7,442.8,874.1,428.9,861,434z"/>
			<path class="st20" d="M760.4,433.5c-11.2,10.3-2.8,15.9,9.8,7.9C779.6,435.6,771.6,423.3,760.4,433.5z"/>
			<path class="st18" d="M841.4,521.7c-4.9,7.3-27.1,22.4-39.2,9.3c-3.7-4,9.9,23.2,32.7,11.2C852.6,532.9,848.8,510.5,841.4,521.7z
				"/>
			<path class="st15" d="M782.6,348.1c0,0,7.2,2.8,18,5.4c-11.6,12-18,25.9-18,25.9c33.6,23.8,75.6,13.5,96.6-8.9
				c7.3,13.6,31.7,45.3,61.1,38.3c-8.4,42.9,21,117.1,22.4,97.1c1.4-20.1,8.4-51.3,8.4-51.3s7.9-44.8-6-74.6
				c13.4,7.1,27,15,40.1,22.8C940.8,227.7,736.4,262.7,782.6,348.1z"/>
			<path class="st14" d="M823.9,491.6c-7.7,1.4-10.5-1.1-16.8-1.4c-12.6-0.7-0.7,17.5,10.5,12.6
				C828.8,497.9,831.6,490.2,823.9,491.6z"/>
			<path class="st19" d="M867.5,400.4c-16.5-3.1-22.4,14-14.5,12.6c7.9-1.4,22,3.3,29.4,3.7C889.9,417.2,880.1,402.7,867.5,400.4z"
				/>
			<path class="st19" d="M800.1,402c-7.1-6.5-27.7-0.3-16.5,5.3c4.4,2.2,12.6,3.8,20.7,10.5C807.7,420.6,808.1,409.4,800.1,402z"/>
			<path class="st19" d="M780.8,440.9c-8.8-2.4-15.4,9.5-9.8,8.1c1.5-0.4,11.2-2.1,14.7,0.7C789.2,452.4,789.6,443.3,780.8,440.9z"
				/>
			<path class="st19" d="M872.2,443.7c-7.7,1-14,9.1-9.1,8s9.8-0.7,15,1C883.5,454.6,879.9,442.6,872.2,443.7z"/>
			<path class="st17" d="M805.4,487.2c-2.3,5.1,7.8,1.5,8.9-2.8C819.4,464.3,807.8,482.1,805.4,487.2z"/>
			<path class="st14" d="M988.8,475.1c-7.5-5.1-21,9.8-14.9,9.3c4.2-0.3,14.5-1.4,15.9,4.2C991.2,494.2,996.3,480.2,988.8,475.1z"/>
			<path class="st16" d="M810.1,370.1c-9.8,2.3-25.2-6.1-28.9-11.2c0,0,0,19.6,15.4,21C812,381.3,819.9,367.7,810.1,370.1z"/>
			<path class="st16" d="M975.8,365.9c-5.9,4-25.2,25.2-28.5,32.2c-3.3,7,13.5-7.9,24.3-19.6C980.9,368.4,984.6,359.8,975.8,365.9z"
				/>
			<path class="st16" d="M892.8,344.3c-3.4,2.2-14,13.1-25.2,11.7c-3.8-0.5,8.9,9.8,23.3,2.8C905.4,351.8,900.8,339.1,892.8,344.3z"
				/>
			<path class="st16" d="M911.7,359.7c-13,3.5-20.7-6.3-20.7-6.3l-7,6.3C899.5,373.7,913.8,359.1,911.7,359.7z"/>
		</g>
		<path class="st13" d="M617.2,760.8l-34.9,137.1l148.1,37.7l32.4-127.4C697.8,825.8,646.3,799.6,617.2,760.8z"/>
		<path class="st3" d="M762.6,792.8c-1.2-9.1-1.7-15-1.7-15c0-6.9,2-12.8-0.5-22.8c-2.6-10-6.4-14.7-13.1-18.2
			c-6.7-3.5-10.2-1.9-12.1-2.4c-1.9-0.4-2.7,2.1-3.5,2.3c-0.8,0.2-4.4,2.5-6.7,4.4c-2.3,1.9-2.9,4.5-3.2,4.8c-0.4,0.3-5.6,2.7-6.6,3
			c-1,0.4-1.1,1.4-0.4,2.2c0.7,0.9,1.1,1.5,1.2,1.7c0.1,0.2-0.5,0.5-0.6,0.7c-0.1,0.2,0,1.4,0.2,1.8c0.2,0.4,0.2,0.6,0.7,0.8
			c0.5,0.2,0.9,0.8,0.3,0.7c-0.6-0.1-1.1,0-1.8,0.6c-0.7,0.6-0.8,1-0.5,1.5c0.3,0.5,0.2,0.6-0.9,1.7c-1,1.1-1.5,3.3,2.2,5
			c3.7,1.7,4.8,1.7,5.9,4.1c1.1,2.4,3.8,11.4,3.5,12.5c-0.2,1.1-5.6,5.5-10.7,12.4c-5,7-5.8,8.6-5.8,8.6s-2.6-0.7-2.1,2.2
			c-3.1,3.7-3.4,7.2-3.8,9.2c-0.4,1.9,0,2.1,0,2.1s-4,4.8-9.3,7.5c-5.3,2.6-8.5,5.7-14,8.5c-5.5,2.8-10.9,5.2-10.9,5.2
			s-1.7-2-3.1-3.4c-1.3-7.2-4.1-15.2-4.1-15.2s2.7-6,3.3-10.9c0.6-4.9-0.6-10.2-0.8-11.7c-0.2-1.6,1.7-6.2,1.5-9.1
			c-0.2-2.9-0.4-3.4-0.4-3.4s1.2-3.9,0-8c3.5-3.6,5.8-5.9,4.7-16.1c-1.1-10.3-3.6-13.8-3.6-13.8s0.2-2.9-1-4.6
			c2.4-5.6,6.9-8.9,6.9-8.9s3.3,3,6.8,3.1c3.5,0.1,3-4.2,3.4-4.7c0.4-0.5,1.4-0.5,2-0.8c0.6-0.3,0.3-1.6,0.3-1.6s0.8,0.1,1.3-0.7
			c0.5-0.8,0.9-2.7,0.9-2.7s1.8,0.6,2.6,0.2c0.8-0.4,1.7-9.4,1.7-9.4s1.6-0.8,1.9-1.4c0.3-0.5,0.1-2.7,0.4-4.7
			c0.2-2,0.7-4.6,0.7-4.6c2.3,1.4,7.4,0.7,7.7-5.8c0-0.9-1.6,1.7-4.9-0.2c2.2,0,3.5-3.6,2.9-3.2c-0.6,0.4-6.1-8.8-17.3-10.4
			c-11.2-1.7-16.4,5.1-16.4,5.1c-2.2-1.7-4.8-0.3-4.8-0.3s-1.9,2.2-1.8,3.6c1.2-1.4,2.4-0.6,2.4-0.6s-5.1,6.2-5,12.4
			c0.4,4.5,0,7.2-1.2,8.5c0.9,0.3,2-0.6,2-0.6c-0.5,1.3-1.6,1.8-1.6,1.8c0.6,0.6,1.2,0.6,1.2,0.6s-2.2,5.8-6.5,8.5
			c-4.3,2.8-11.4,4.5-16.7,9.3c-5.4,4.9-7.8,12.4-9.5,17.4c-1.7,5,0,6.9,0,6.9s-0.6,9.3-0.4,16.9c0.2,7.6,0.7,9.9-0.2,13.8
			c-0.9,3.9-0.1,4,0.8,5.8c0.9,1.7,0.7,7.5,1.2,9.5c-2.2,3.7-2.3,5-2.3,5s-6.5,5.9-9.3,16.8c-2.8,10.9-1.1,19.1-2.1,23.8
			c-1,4.7-4.9,34.6-5.8,39.3c-0.9,4.7-6.4,17.2-6.4,17.2l38.8,7.3l16.5-51.5c0,0,0.9,0,1.2-1.3c0.3-1.3,1.4-4.1,1.4-4.1
			s1.1,0.9,1.8,1.4c0.7,0.6,2-0.3,1.5-1.7c-0.5-1.4,1.3,1.5,2,2c-0.3,1.2,0.5,2.1,1.9,0.5c1.4-1.6,2.5-3.7,2.5-3.7s3.3-2.7,4.3-3.6
			c1.4,0.2,2.1-0.7,1.6-1.5c0.8-1.1,1-2.3,1-2.3s5.7-2.7,9.8-4.2c4.1-1.5,15.1-4.8,18.8-8.2c-0.2,1.8-0.4,3.8-1.1,5.2
			c-0.7,1.4-2.6,10.8-3,17.1c-0.5,6.4-0.5,10.5-0.5,10.5s-1.8,3.7-2.1,6.8c-2.2,4.3-10.9,20.9-14.2,28.2c-3.3,7.3-2.9,8.3-3.7,11.4
			c-0.8,3.1-3.4,8.2-3.4,8.2l38.1,8.3c0,0,0.9-4,1-4.9c0.1-0.9,3.9-11.6,5.2-21.5c1.4-9.9,6-13.3,9-18.2c3-4.9,9.1-12.4,5.8-22.2
			c-3.3-9.8-4.2-15.1-1.7-24.4c2.6-9.3,7.4-18.2,7.4-18.2s1.4-0.6,1.8-1.9c0.4-1.3,0.1-2,0.1-2s1.7-5.4,2.5-6.6
			c-0.9,2.8,4.1,6.6,4.2,9.4c0.9-1.9,0.3-3.5,0.3-3.5c2.3,2.8,0.9,4.8,7.8,5.6C751.9,821.6,764.9,810.2,762.6,792.8z"/>
		<circle class="st3" cx="587.1" cy="706.5" r="10.5"/>
	</g>
</g>
</svg>
